<svg xmlns="http://www.w3.org/2000/svg" viewBox="0 0 130 130"><path fill="none" d="M0 0h130v130H0z"/><path d="M128.948 24.976a2.186 2.186 0 0 0-.099-.398 1.328 1.328 0 0 0-.15-.277c-6.753 8.805-18.374 22.845-33.728 34.301 15.803 15.413 27.833 34 34.028 44.542V25.198c.001-.083-.046-.149-.051-.222z"/><path d="M64.993 71.024c28.03-9.026 52.381-34.643 62.986-47.433-.028-.024-.054-.05-.089-.069-.043-.021-.09-.021-.132-.044-.142-.059-.287-.094-.442-.132a2.86 2.86 0 0 0-.433-.074c-.052-.007-.099-.025-.15-.025H3.262c-.057 0-.104.019-.155.025-.141.011-.277.042-.414.072-.159.04-.306.075-.456.134-.037.023-.084.023-.131.044-.036.019-.063.047-.095.073 10.469 12.644 35.017 38.42 62.982 47.429z"/><path d="M93.446 59.714c-8.292 5.995-17.622 11.185-27.825 14.38l-.628.198-.628-.198c-10.171-3.187-19.479-8.358-27.758-14.333C19.793 76.026 7.261 95.92 1.478 105.945a2.338 2.338 0 0 0 1.784.809h123.472c.729 0 1.345-.314 1.759-.771-5.764-10.039-18.281-29.986-35.047-46.269z"/><path d="M35.089 58.646C19.703 47.185 8.062 33.123 1.301 24.305a1.6 1.6 0 0 0-.155.272c-.047.132-.07.258-.094.398-.005.074-.052.14-.052.223v77.865c6.219-10.534 18.257-29.039 34.089-44.417z"/></svg>