<svg xmlns="http://www.w3.org/2000/svg" viewBox="0 0 130 130"><path fill="none" d="M0 0h130v130H0z"/><path d="M65 1.9c-35.3 0-64 28.7-64 64C1 96 21.7 121.2 49.7 128v-23.5c-.1-.1-12.1 7-18.3-5.3-.7-1.5-2.2-6.6-6-9.4-.1-.1-2.9-1.5-3.1-2.9 0-.2.2-.6.4-.7.3-.1 4.8-2 9.9 4.4 1.5 2.1 5 10.4 17 5.3.3-1.3.6-3.3 3.2-5.7-17.9-2.1-24.5-8.3-27-23.6-1.6-10.4 1.5-19.1 6-23.4-.7-.9-3-8.5.6-16.6 3.8-.8 10.9 2 17.1 6.5 8.8-3.2 25.2-2.3 31.1 0 2.8-2.3 12.8-7.7 17.1-6.5 1.3 3.2 3.1 11 .6 16.6 5.6 5.7 7.1 13.1 6.1 22.2-1.2 13.8-8.2 23.1-27.2 24.7 3.2 2.2 6.1 5.3 6.1 10.5v26.6C109.7 119.5 129 95 129 65.9c0-35.3-28.7-64-64-64z"/></svg>