<svg xmlns="http://www.w3.org/2000/svg" viewBox="0 0 130 130"><path fill="none" d="M0 0h130v130H0z"/><path d="M56.8 15.5L31.8 38c-1.4 1.2-2.7 2.8-3.8 4.6H8.4C4.3 42.6 1 46 1 50v30c0 4.1 3.3 7.4 7.4 7.4H28c1.2 1.8 2.5 3.4 3.8 4.6l25 22.5c5 4.5 9.1 2.7 9.1-4.1V19.6c.1-6.8-4.1-8.6-9.1-4.1zm24.2 26c-2 1.2-2.6 3.7-1.4 5.7 6.8 11.5 6.8 25.7 0 37.2-1.2 2-.5 4.5 1.4 5.7.7.4 1.4.6 2.1.6 1.4 0 2.8-.7 3.5-2C95 74.5 95 57 86.6 42.9c-1.2-2-3.7-2.6-5.6-1.4zm21.6-6.8c-1.2-2-3.7-2.6-5.7-1.4-2 1.2-2.6 3.7-1.4 5.7 9.9 16.5 9.9 37.1 0 53.6-1.2 2-.5 4.5 1.4 5.7.7.4 1.4.6 2.1.6 1.4 0 2.8-.7 3.5-2 11.5-19.3 11.5-43.1.1-62.2zm12.2-17.4c-1.2-1.9-3.8-2.5-5.7-1.2-1.9 1.2-2.5 3.8-1.2 5.7 17.1 26.7 17.1 61.2 0 87.9-1.2 1.9-.7 4.5 1.2 5.7.7.4 1.5.7 2.2.7 1.4 0 2.7-.7 3.5-1.9 18.9-29.5 18.9-67.5 0-96.9z" fill="#fff"/></svg>