<svg xmlns="http://www.w3.org/2000/svg" viewBox="0 0 130 130"><path fill="none" d="M0 0h130v130H0z"/><path fill="#fff" d="M127.8 71.9c-1.3-1.4-3.5-2.6-3.5-2.6L44.6 23.7s-4.6-2.2-9.6.1c0 0-4.9 2.9-5.8 3.4-.9.5-25.3 15.1-26.2 15.6-1.2.7-2.1 1.9-2 2.9 0 1.1.1 3 .1 3l.1 2s0 1.8 1.4 2.9c1.5 1.1 78 50.6 78 50.6s4.2 3 8.7 3 7.7-2.5 9.1-3.5c1.5-1 27.8-19.7 27.8-19.7s2.7-1.9 2.7-3.7v-5.7c.1 0 .2-1.4-1.1-2.7zM23.1 36.5c1-.5 2.3-.7 3.2-.3.9.4.7 1.1-.2 1.6-.9.5-2.3.7-3.2.3-.9-.4-.7-1.1.2-1.6zm56.7 56.9c-.4.3-1 .3-1.4 0l-66.2-42c-.4-.2-.4-.6 0-.9l36-21.2c.4-.2 1-.2 1.4 0l66.2 38c.4.2.4.6 0 .9l-36 25.2zm17.1 7.2c0-.3.2-.5.4-.6.2-.1.4.1.4.3 0 .3-.2.5-.4.6-.2.1-.4 0-.4-.3zm.6 1.8c-.2.1-.4-.1-.4-.3s.2-.5.4-.6.4.1.4.3c0 .2-.2.5-.4.6zm.8-2.7c0-.2.2-.5.4-.6.2-.1.4.1.4.3 0 .3-.2.5-.4.6-.2.1-.4-.1-.4-.3zm.5 1.7c-.2.1-.4-.1-.4-.3 0-.3.2-.5.4-.6.2-.1.4.1.4.3 0 .2-.1.5-.4.6zm.8-2.7c0-.3.2-.5.4-.6.2-.1.4.1.4.3 0 .3-.2.5-.4.6-.2.1-.4 0-.4-.3zm.5 1.7c-.2.1-.4-.1-.4-.3 0-.3.2-.5.4-.6s.4.1.4.3c0 .3-.1.5-.4.6zm.8-2.5c0-.3.2-.5.4-.6.2-.1.4.1.4.3 0 .3-.2.5-.4.6-.2 0-.4-.1-.4-.3zm.5 1.6c-.2.1-.4-.1-.4-.3 0-.3.2-.5.4-.6.2-.1.4.1.4.3 0 .3-.2.5-.4.6zm.8-2.6c0-.3.2-.5.4-.6.2-.1.4.1.4.3 0 .3-.2.5-.4.6-.2.1-.4-.1-.4-.3zm.5 1.7c-.2.1-.4-.1-.4-.3s.2-.5.4-.6c.2-.1.4.1.4.3 0 .2-.2.5-.4.6zm.7-2.7c0-.3.2-.5.4-.6.2-.1.4.1.4.3 0 .3-.2.5-.4.6-.2.1-.4 0-.4-.3zm.5 1.7c-.2.1-.4-.1-.4-.3 0-.3.2-.5.4-.6.2-.1.4.1.4.3.1.3-.1.5-.4.6zm.8-2.6c0-.3.2-.5.4-.6.2-.1.4.1.4.3 0 .3-.2.5-.4.6-.2.1-.4-.1-.4-.3zm.5 1.7c-.2.1-.4-.1-.4-.3 0-.3.2-.5.4-.6.2-.1.4.1.4.3s-.1.5-.4.6zm.7-9.7c-.1 0-.2 0-.3.1h-1.7c-.2 0-.3 0-.5-.1-.3-.1-.5-.1-.8-.2-.2-.1-.5-.2-.7-.3l-.6-.3c-.2-.1-.4-.3-.5-.4l-.3-.3c-.1-.2-.3-.4-.4-.6-.1-.2-.2-.5-.2-.8v-.4c0-.2.1-.3.2-.5 0-.1.1-.2.2-.3.1-.1.1-.2.2-.3l.4-.4c.2-.1.4-.3.6-.4.1 0 .2-.1.2-.1.2-.1.3-.1.5-.2s.4-.1.6-.2c.2 0 .4-.1.6-.1h1.6c.1 0 .2 0 .3.1.2 0 .4.1.6.1.1 0 .2.1.3.1.2.1.5.2.7.3.3.1.6.3.8.5.1.1.2.1.3.2l.2.2c.1.1.2.2.2.3.1.2.3.4.3.7 0 .1.1.3.1.4v.3c0 .2-.1.3-.1.4-.1.3-.3.6-.5.8l-.2.2c-.1.1-.3.2-.4.3-.1.1-.2.1-.3.2-.2.1-.3.2-.5.2-.2.1-.3.1-.5.2 0 .2-.2.3-.4.3zm10.2 2.4s-5.7 4.3-7.2 5.4c-1.5 1.1-1.8-.1-1.8-.1-.5-1.5 1-2.3 1-2.3s6.4-4.7 7.5-5.5c1-.7 1.3.4 1.3.4.2 1.6-.8 2.1-.8 2.1zm2.2-3.7c0-.3.2-.5.4-.6.2-.1.4.1.4.3 0 .3-.2.5-.4.6-.2.1-.4 0-.4-.3zm.6 1.7c-.2.1-.4-.1-.4-.3s.2-.5.4-.6c.2-.1.4.1.4.3 0 .3-.2.5-.4.6zm.6-2.6c0-.3.2-.5.4-.6.2-.1.4.1.4.3 0 .3-.2.5-.4.6-.2.1-.4-.1-.4-.3zm.5 1.6c-.2.1-.4-.1-.4-.3 0-.3.2-.5.4-.6.2-.1.4.1.4.3 0 .3-.2.6-.4.6zm.6-2.5c0-.3.2-.5.4-.6.2-.1.4.1.4.3 0 .3-.2.5-.4.6-.2.1-.4-.1-.4-.3zm.6 1.7c-.2.1-.4-.1-.4-.3s.2-.5.4-.6c.2-.1.4.1.4.3 0 .2-.2.5-.4.6zm.5-2.5c0-.3.2-.5.4-.6.2-.1.4.1.4.3 0 .3-.2.5-.4.6-.2.1-.4-.1-.4-.3zm.6 1.7c-.2.1-.4-.1-.4-.3 0-.3.2-.5.4-.6.2-.1.4.1.4.3 0 .2-.2.5-.4.6zm.6-2.6c0-.3.2-.5.4-.6.2-.1.4.1.4.3s-.2.5-.4.6c-.2.1-.4-.1-.4-.3zm.5 1.7c-.2.1-.4-.1-.4-.3 0-.3.2-.5.4-.6.2-.1.4.1.4.3 0 .2-.2.5-.4.6z"/></svg>