<svg version="1.1" xmlns="http://www.w3.org/2000/svg" x="0px" y="0px" viewBox="0 0 130 130" enable-background="new 0 0 130 130" xml:space="preserve">
<rect fill="none" width="130" height="130"/>
<g>
	<path d="M128.948,24.976c-0.023-0.141-0.052-0.267-0.099-0.398c-0.035-0.099-0.092-0.188-0.15-0.277
		c-6.753,8.805-18.374,22.845-33.728,34.301c15.803,15.413,27.833,34,34.028,44.542V25.198
		C129,25.115,128.953,25.049,128.948,24.976z"/>
	<path d="M64.993,71.024c28.03-9.026,52.381-34.643,62.986-47.433c-0.028-0.024-0.054-0.05-0.089-0.069
		c-0.043-0.021-0.09-0.021-0.132-0.044c-0.142-0.059-0.287-0.094-0.442-0.132c-0.146-0.033-0.282-0.063-0.433-0.074
		c-0.052-0.007-0.099-0.025-0.15-0.025H3.262c-0.057,0-0.104,0.019-0.155,0.025c-0.141,0.011-0.277,0.042-0.414,0.072
		c-0.159,0.04-0.306,0.075-0.456,0.134c-0.037,0.023-0.084,0.023-0.131,0.044c-0.036,0.019-0.063,0.047-0.095,0.073
		C12.48,36.239,37.028,62.015,64.993,71.024z"/>
	<path d="M93.446,59.714c-8.292,5.995-17.622,11.185-27.825,14.38l-0.628,0.198l-0.628-0.198
		c-10.171-3.187-19.479-8.358-27.758-14.333C19.793,76.026,7.261,95.92,1.478,105.945c0.413,0.478,1.039,0.809,1.784,0.809h123.472
		c0.729,0,1.345-0.314,1.759-0.771C122.729,95.944,110.212,75.997,93.446,59.714z"/>
	<path d="M35.089,58.646C19.703,47.185,8.062,33.123,1.301,24.305c-0.059,0.088-0.115,0.176-0.155,0.272
		c-0.047,0.132-0.07,0.258-0.094,0.398C1.047,25.049,1,25.115,1,25.198v77.865C7.219,92.529,19.257,74.024,35.089,58.646z"/>
</g>
</svg>
