<svg xmlns="http://www.w3.org/2000/svg" viewBox="0 0 130 130"><path fill="none" d="M0 0h130v130H0z"/><path d="M127.514 35.951h-3.541c-.824 0-1.685-.645-1.913-1.429l-2.033-4.943c-.396-.713-.251-1.773.34-2.352l2.491-2.495a1.475 1.475 0 0 0 0-2.101l-2.871-2.876a1.504 1.504 0 0 0-2.099 0l-2.505 2.505c-.577.575-1.636.728-2.354.334l-4.952-2.036c-.78-.231-1.42-1.093-1.42-1.909v-3.534c0-.82-.675-1.489-1.495-1.489h-4.057a1.49 1.49 0 0 0-1.486 1.489v3.534c0 .816-.652 1.678-1.429 1.909l-4.952 2.036c-.719.394-1.777.241-2.351-.334l-2.504-2.5a1.496 1.496 0 0 0-2.1 0l-2.879 2.871a1.48 1.48 0 0 0 0 2.101l2.5 2.495c.586.578.731 1.639.335 2.352l-2.028 4.943c-.233.784-1.103 1.429-1.914 1.429h-3.541c-.815 0-1.49.671-1.49 1.485v4.06c0 .813.675 1.484 1.49 1.484h3.541c.812 0 1.681.643 1.914 1.425l2.028 4.942c.396.718.251 1.772-.335 2.354l-2.5 2.495a1.48 1.48 0 0 0 0 2.101l2.875 2.875a1.502 1.502 0 0 0 2.104-.004l2.504-2.499c.573-.577 1.632-.726 2.351-.332l4.952 2.033c.776.229 1.429 1.093 1.429 1.909v3.534c0 .815.666 1.488 1.486 1.488h4.057a1.5 1.5 0 0 0 1.495-1.488v-3.534c0-.816.64-1.681 1.42-1.909l4.952-2.033c.719-.394 1.777-.245 2.354.332l2.505 2.503a1.487 1.487 0 0 0 2.099 0l2.871-2.875a1.475 1.475 0 0 0 0-2.101l-2.505-2.495c-.577-.581-.723-1.641-.326-2.354l2.033-4.942c.229-.782 1.089-1.425 1.913-1.425h3.541c.825 0 1.486-.671 1.486-1.484v-4.06c0-.814-.661-1.485-1.486-1.485zm-24.376 9.972a6.464 6.464 0 0 1-6.47-6.46c0-3.565 2.897-6.458 6.47-6.458a6.46 6.46 0 0 1 0 12.918zm-23.32 24.405h-5.543c-1.292 0-2.641-1.01-3.007-2.239l-3.188-7.757c-.617-1.118-.384-2.78.524-3.688l3.912-3.916a2.326 2.326 0 0 0 0-3.295l-4.498-4.515a2.364 2.364 0 0 0-3.299 0l-3.925 3.932c-.908.902-2.57 1.143-3.704.522l-7.765-3.194c-1.222-.361-2.228-1.713-2.228-2.997v-5.544a2.346 2.346 0 0 0-2.337-2.333h-6.381a2.331 2.331 0 0 0-2.319 2.333v5.544c0 1.284-1.023 2.636-2.244 2.997l-7.766 3.194c-1.12.62-2.787.38-3.691-.522l-3.92-3.923a2.354 2.354 0 0 0-3.303 0l-4.512 4.506a2.326 2.326 0 0 0 0 3.295l3.916 3.916c.913.907 1.151 2.569.534 3.688l-3.188 7.757c-.37 1.229-1.725 2.239-2.999 2.239H3.324A2.34 2.34 0 0 0 1 72.661v6.363a2.341 2.341 0 0 0 2.324 2.333h5.564c1.274 0 2.629 1.005 2.999 2.235l3.188 7.752c.617 1.125.379 2.783-.525 3.691l-3.925 3.916a2.33 2.33 0 0 0 0 3.298l4.507 4.509a2.363 2.363 0 0 0 3.308-.009l3.92-3.92c.904-.906 2.571-1.138 3.691-.521l7.766 3.188c1.221.359 2.244 1.713 2.244 3.001v5.54a2.332 2.332 0 0 0 2.319 2.335h6.381a2.347 2.347 0 0 0 2.337-2.335v-5.54c0-1.288 1.006-2.642 2.228-3.001l7.765-3.188c1.134-.617 2.796-.386 3.704.521l3.925 3.929a2.35 2.35 0 0 0 3.299 0l4.498-4.509a2.33 2.33 0 0 0 0-3.298l-3.93-3.916c-.891-.908-1.124-2.571-.507-3.691l3.188-7.752c.366-1.23 1.715-2.235 3.007-2.235h5.543a2.348 2.348 0 0 0 2.342-2.333v-6.363a2.346 2.346 0 0 0-2.342-2.333zm-38.24 15.646c-5.604 0-10.143-4.537-10.143-10.133 0-5.599 4.538-10.134 10.143-10.134 5.601 0 10.146 4.535 10.146 10.134.001 5.596-4.545 10.133-10.146 10.133z" fill="#fff"/></svg>