<svg version="1.1" xmlns="http://www.w3.org/2000/svg" x="0px" y="0px" viewBox="0 0 130 130" style="enable-background:new 0 0 130 130;" xml:space="preserve">
<rect fill="none" width="130" height="130"/>
<g>
	<path fill="#ffffff" d="M56.8,15.5L31.8,38c-1.4,1.2-2.7,2.8-3.8,4.6H8.4C4.3,42.6,1,46,1,50v30c0,4.1,3.3,7.4,7.4,7.4H28
		c1.2,1.8,2.5,3.4,3.8,4.6l25,22.5c5,4.5,9.1,2.7,9.1-4.1V19.6C66,12.8,61.8,11,56.8,15.5z"/>
	<path fill="#ffffff" d="M81,41.5c-2,1.2-2.6,3.7-1.4,5.7c6.8,11.5,6.8,25.7,0,37.2c-1.2,2-0.5,4.5,1.4,5.7c0.7,0.4,1.4,0.6,2.1,0.6
		c1.4,0,2.8-0.7,3.5-2C95,74.5,95,57,86.6,42.9C85.4,40.9,82.9,40.3,81,41.5z M102.6,34.7c-1.2-2-3.7-2.6-5.7-1.4
		c-2,1.2-2.6,3.7-1.4,5.7c9.9,16.5,9.9,37.1,0,53.6c-1.2,2-0.5,4.5,1.4,5.7c0.7,0.4,1.4,0.6,2.1,0.6c1.4,0,2.8-0.7,3.5-2
		C114,77.6,114,53.8,102.6,34.7z M114.8,17.3c-1.2-1.9-3.8-2.5-5.7-1.2c-1.9,1.2-2.5,3.8-1.2,5.7c17.1,26.7,17.1,61.2,0,87.9
		c-1.2,1.9-0.7,4.5,1.2,5.7c0.7,0.4,1.5,0.7,2.2,0.7c1.4,0,2.7-0.7,3.5-1.9C133.7,84.7,133.7,46.7,114.8,17.3z"/>
</g>
</svg>
