<svg version="1.1" xmlns="http://www.w3.org/2000/svg" x="0px" y="0px" viewBox="0 0 130 130" enable-background="new 0 0 130 130" xml:space="preserve">
<rect fill="none" width="130" height="130"/>
<g>
	<path d="M64.875,58.832c15.978,0,28.92-12.93,28.92-28.918C93.795,13.947,80.853,1,64.875,1
			C48.901,1,35.964,13.947,35.964,29.913C35.964,45.901,48.901,58.832,64.875,58.832z M108.019,121.554l-0.302-1.565
			c-2.329-10.061-9.385-33.872-13.972-39.67c-6.19-11.346-23.854-10.804-23.854-10.804H55.874c0,0-13.048-0.465-20.519,10.278
			c-3.992,5.737-10.193,27.85-12.791,38.961c-0.456,1.732-0.605,2.772-0.605,2.772c-1.052,4.115,1.562,7.474,5.806,7.474h74.536
			C106.544,129,109.122,125.647,108.019,121.554z"/>
</g>
</svg>
