<svg version="1.1" xmlns="http://www.w3.org/2000/svg" x="0px" y="0px" viewBox="0 0 130 130" style="enable-background:new 0 0 130 130;" xml:space="preserve">
<rect fill="none" width="130" height="130"/>
<path fill="#ffffff" d="M127.8,71.9c-1.3-1.4-3.5-2.6-3.5-2.6L44.6,23.7c0,0-4.6-2.2-9.6,0.1c0,0-4.9,2.9-5.8,3.4
	C28.3,27.7,3.9,42.3,3,42.8c-1.2,0.7-2.1,1.9-2,2.9c0,1.1,0.1,3,0.1,3l0.1,2c0,0,0,1.8,1.4,2.9c1.5,1.1,78,50.6,78,50.6s4.2,3,8.7,3
	s7.7-2.5,9.1-3.5c1.5-1,27.8-19.7,27.8-19.7s2.7-1.9,2.7-3.7v-5.7C129,74.6,129.1,73.2,127.8,71.9z M23.1,36.5
	c1-0.5,2.3-0.7,3.2-0.3c0.9,0.4,0.7,1.1-0.2,1.6c-0.9,0.5-2.3,0.7-3.2,0.3C22,37.7,22.2,37,23.1,36.5z M79.8,93.4
	c-0.4,0.3-1,0.3-1.4,0l-66.2-42c-0.4-0.2-0.4-0.6,0-0.9l36-21.2c0.4-0.2,1-0.2,1.4,0l66.2,38c0.4,0.2,0.4,0.6,0,0.9L79.8,93.4z
	 M96.9,100.6c0-0.3,0.2-0.5,0.4-0.6c0.2-0.1,0.4,0.1,0.4,0.3c0,0.3-0.2,0.5-0.4,0.6C97.1,101,96.9,100.9,96.9,100.6z M97.5,102.4
	c-0.2,0.1-0.4-0.1-0.4-0.3s0.2-0.5,0.4-0.6s0.4,0.1,0.4,0.3C97.9,102,97.7,102.3,97.5,102.4z M98.3,99.7c0-0.2,0.2-0.5,0.4-0.6
	c0.2-0.1,0.4,0.1,0.4,0.3c0,0.3-0.2,0.5-0.4,0.6C98.5,100.1,98.3,99.9,98.3,99.7z M98.8,101.4c-0.2,0.1-0.4-0.1-0.4-0.3
	c0-0.3,0.2-0.5,0.4-0.6c0.2-0.1,0.4,0.1,0.4,0.3C99.2,101,99.1,101.3,98.8,101.4z M99.6,98.7c0-0.3,0.2-0.5,0.4-0.6
	c0.2-0.1,0.4,0.1,0.4,0.3c0,0.3-0.2,0.5-0.4,0.6C99.8,99.1,99.6,99,99.6,98.7z M100.1,100.4c-0.2,0.1-0.4-0.1-0.4-0.3
	c0-0.3,0.2-0.5,0.4-0.6s0.4,0.1,0.4,0.3C100.5,100.1,100.4,100.3,100.1,100.4z M100.9,97.9c0-0.3,0.2-0.5,0.4-0.6
	c0.2-0.1,0.4,0.1,0.4,0.3c0,0.3-0.2,0.5-0.4,0.6C101.1,98.2,100.9,98.1,100.9,97.9z M101.4,99.5c-0.2,0.1-0.4-0.1-0.4-0.3
	c0-0.3,0.2-0.5,0.4-0.6c0.2-0.1,0.4,0.1,0.4,0.3C101.8,99.2,101.6,99.4,101.4,99.5z M102.2,96.9c0-0.3,0.2-0.5,0.4-0.6
	c0.2-0.1,0.4,0.1,0.4,0.3c0,0.3-0.2,0.5-0.4,0.6C102.4,97.3,102.2,97.1,102.2,96.9z M102.7,98.6c-0.2,0.1-0.4-0.1-0.4-0.3
	s0.2-0.5,0.4-0.6c0.2-0.1,0.4,0.1,0.4,0.3C103.1,98.2,102.9,98.5,102.7,98.6z M103.4,95.9c0-0.3,0.2-0.5,0.4-0.6
	c0.2-0.1,0.4,0.1,0.4,0.3c0,0.3-0.2,0.5-0.4,0.6C103.6,96.3,103.4,96.2,103.4,95.9z M103.9,97.6c-0.2,0.1-0.4-0.1-0.4-0.3
	c0-0.3,0.2-0.5,0.4-0.6c0.2-0.1,0.4,0.1,0.4,0.3C104.4,97.3,104.2,97.5,103.9,97.6z M104.7,95c0-0.3,0.2-0.5,0.4-0.6
	c0.2-0.1,0.4,0.1,0.4,0.3c0,0.3-0.2,0.5-0.4,0.6C104.9,95.4,104.7,95.2,104.7,95z M105.2,96.7c-0.2,0.1-0.4-0.1-0.4-0.3
	c0-0.3,0.2-0.5,0.4-0.6c0.2-0.1,0.4,0.1,0.4,0.3S105.5,96.6,105.2,96.7z M105.9,87c-0.1,0-0.2,0-0.3,0.1c-0.1,0-0.2,0-0.2,0
	c-0.1,0-0.1,0-0.2,0c-0.1,0-0.2,0-0.3,0c-0.1,0-0.1,0-0.2,0v0c-0.1,0-0.2,0-0.3,0c-0.1,0-0.2,0-0.2,0c-0.1,0-0.2,0-0.3,0
	c-0.2,0-0.3,0-0.5-0.1c-0.3-0.1-0.5-0.1-0.8-0.2c-0.2-0.1-0.5-0.2-0.7-0.3c-0.2-0.1-0.4-0.2-0.6-0.3c-0.2-0.1-0.4-0.3-0.5-0.4
	c-0.1-0.1-0.2-0.2-0.3-0.3c-0.1-0.2-0.3-0.4-0.4-0.6c-0.1-0.2-0.2-0.5-0.2-0.8c0-0.1,0-0.3,0-0.4c0-0.2,0.1-0.3,0.2-0.5
	c0-0.1,0.1-0.2,0.2-0.3c0.1-0.1,0.1-0.2,0.2-0.3c0.1-0.1,0.3-0.3,0.4-0.4c0.2-0.1,0.4-0.3,0.6-0.4c0.1,0,0.2-0.1,0.2-0.1
	c0.2-0.1,0.3-0.1,0.5-0.2c0.2-0.1,0.4-0.1,0.6-0.2c0.2,0,0.4-0.1,0.6-0.1c0.1,0,0.3,0,0.4,0c0.1,0,0.3,0,0.4,0c0.1,0,0.2,0,0.3,0
	c0.1,0,0.2,0,0.3,0c0.1,0,0.1,0,0.2,0c0.1,0,0.2,0,0.3,0.1c0.2,0,0.4,0.1,0.6,0.1c0.1,0,0.2,0.1,0.3,0.1c0.2,0.1,0.5,0.2,0.7,0.3
	c0.3,0.1,0.6,0.3,0.8,0.5c0.1,0.1,0.2,0.1,0.3,0.2c0.1,0.1,0.2,0.2,0.2,0.2c0.1,0.1,0.2,0.2,0.2,0.3c0.1,0.2,0.3,0.4,0.3,0.7
	c0,0.1,0.1,0.3,0.1,0.4c0,0.1,0,0.2,0,0.3c0,0.2-0.1,0.3-0.1,0.4c-0.1,0.3-0.3,0.6-0.5,0.8c-0.1,0.1-0.2,0.2-0.2,0.2
	c-0.1,0.1-0.3,0.2-0.4,0.3c-0.1,0.1-0.2,0.1-0.3,0.2c-0.2,0.1-0.3,0.2-0.5,0.2c-0.2,0.1-0.3,0.1-0.5,0.2
	C106.3,86.9,106.1,87,105.9,87z M116.1,89.4c0,0-5.7,4.3-7.2,5.4c-1.5,1.1-1.8-0.1-1.8-0.1c-0.5-1.5,1-2.3,1-2.3s6.4-4.7,7.5-5.5
	c1-0.7,1.3,0.4,1.3,0.4C117.1,88.9,116.1,89.4,116.1,89.4z M118.3,85.7c0-0.3,0.2-0.5,0.4-0.6c0.2-0.1,0.4,0.1,0.4,0.3
	c0,0.3-0.2,0.5-0.4,0.6C118.5,86.1,118.3,86,118.3,85.7z M118.9,87.4c-0.2,0.1-0.4-0.1-0.4-0.3s0.2-0.5,0.4-0.6
	c0.2-0.1,0.4,0.1,0.4,0.3C119.3,87.1,119.1,87.3,118.9,87.4z M119.5,84.8c0-0.3,0.2-0.5,0.4-0.6c0.2-0.1,0.4,0.1,0.4,0.3
	c0,0.3-0.2,0.5-0.4,0.6C119.7,85.2,119.5,85,119.5,84.8z M120,86.4c-0.2,0.1-0.4-0.1-0.4-0.3c0-0.3,0.2-0.5,0.4-0.6
	c0.2-0.1,0.4,0.1,0.4,0.3C120.4,86.1,120.2,86.4,120,86.4z M120.6,83.9c0-0.3,0.2-0.5,0.4-0.6c0.2-0.1,0.4,0.1,0.4,0.3
	c0,0.3-0.2,0.5-0.4,0.6C120.8,84.3,120.6,84.1,120.6,83.9z M121.2,85.6c-0.2,0.1-0.4-0.1-0.4-0.3s0.2-0.5,0.4-0.6
	c0.2-0.1,0.4,0.1,0.4,0.3C121.6,85.2,121.4,85.5,121.2,85.6z M121.7,83.1c0-0.3,0.2-0.5,0.4-0.6c0.2-0.1,0.4,0.1,0.4,0.3
	c0,0.3-0.2,0.5-0.4,0.6C121.9,83.5,121.7,83.3,121.7,83.1z M122.3,84.8c-0.2,0.1-0.4-0.1-0.4-0.3c0-0.3,0.2-0.5,0.4-0.6
	c0.2-0.1,0.4,0.1,0.4,0.3C122.7,84.4,122.5,84.7,122.3,84.8z M122.9,82.2c0-0.3,0.2-0.5,0.4-0.6c0.2-0.1,0.4,0.1,0.4,0.3
	s-0.2,0.5-0.4,0.6C123.1,82.6,122.9,82.4,122.9,82.2z M123.4,83.9c-0.2,0.1-0.4-0.1-0.4-0.3c0-0.3,0.2-0.5,0.4-0.6
	c0.2-0.1,0.4,0.1,0.4,0.3C123.8,83.5,123.6,83.8,123.4,83.9z"/>
</svg>
