<svg version="1.1" xmlns="http://www.w3.org/2000/svg" x="0px" y="0px" viewBox="0 0 130 130" style="enable-background:new 0 0 130 130;" xml:space="preserve">
<rect fill="none" width="130" height="130"/>
<g>
	<path d="M74.9,10H44.5c-4,0-8.4,0.4-13,1.3c-4.7,1-9.1,3.2-13.5,6.6c-6.3,5.8-9.4,12.2-9.4,19.3c0,5.9,2.2,11,6.7,15.4
		c4.2,4.7,10.4,7.2,18.5,7.2c1.5,0,3.2-0.1,4.9-0.3c-0.3,0.8-0.6,1.6-0.9,2.5c-0.4,0.9-0.6,1.9-0.6,3.2c0,2.2,0.5,4,1.5,5.5
		c0.9,1.6,1.8,3.1,2.9,4.4c-3.6,0.1-8,0.5-13.4,1.3c-5.4,0.9-10.6,2.7-15.6,5.3c-4.4,2.5-7.4,5.4-9.1,8.6C1.9,93.8,1,96.8,1,99.4
		c0,5.5,2.7,10.2,8,14.1c5.3,4.2,13.2,6.4,23.9,6.4c12.7-0.2,22.5-3.1,29.2-8.7c6.5-5.4,9.8-11.6,9.8-18.6c-0.1-4.9-1.3-8.9-3.5-12
		c-2.4-3-5.2-5.7-8.4-8.2l-5.1-4C54,67.8,53.2,67,52.4,66c-0.9-1-1.4-2.2-1.4-3.7c0-1.5,0.4-2.9,1.3-4.1c0.8-1.1,1.6-2.1,2.5-3
		c1.6-1.3,3.1-2.6,4.5-3.9c1.3-1.3,2.5-2.7,3.6-4.2c2.3-3.1,3.5-7.2,3.6-12.4c0-2.8-0.3-5.3-1-7.4c-0.8-2.1-1.7-3.9-2.8-5.5
		c-1.1-1.6-2.2-3-3.4-4.1c-1.2-1.1-2.3-1.9-3.2-2.5h9.3L74.9,10z M58.2,88.8c2.5,2.7,3.8,5.9,3.8,9.6c0,4.5-1.8,8.2-5.5,11.1
		c-3.8,2.9-9.2,4.4-16.4,4.5c-8-0.1-14.3-1.8-18.9-5.1c-4.8-3.3-7.3-7.5-7.3-12.5c0-2.6,0.6-4.8,1.7-6.6c1-1.7,2.2-3.2,3.6-4.4
		c1.5-1.1,2.9-2,4.3-2.6c1.4-0.6,2.5-1,3.3-1.3c3.3-0.9,6.5-1.6,9.7-2c3.2-0.3,5.2-0.4,5.9-0.3c1.3,0,2.4,0.1,3.4,0.1
		C51.3,83.1,55.5,86.3,58.2,88.8z M53.3,46.3c-0.4,1.9-1.2,3.8-2.4,5.7c-2.7,2.6-6,4-10,4.1c-3.2,0-6-0.9-8.5-2.8
		c-2.5-1.8-4.5-4.1-6.1-6.7c-3.2-5.7-4.8-11.1-4.8-16.3c-0.1-4,1-7.5,3.3-10.7c2.7-3.1,6.2-4.6,10.3-4.7c3.1,0.1,5.9,1,8.3,2.6
		c2.3,1.7,4.2,4,5.7,6.8c3.1,5.8,4.6,11.5,4.6,17.2C53.6,42.8,53.5,44.4,53.3,46.3z M109,31.9V11.4h-6.3v20.4H82.6v6.5h20.2v20.8
		h6.3V38.3h20v-6.5L109,31.9L109,31.9z"/>
</g>
</svg>
