<svg xmlns="http://www.w3.org/2000/svg" viewBox="0 0 130 130"><path fill="none" d="M0 0h130v130H0z"/><path fill="#fff" d="M17.8 80.3C8.5 80.3 1 87.8 1 97v7.6h33.6V97c0-9.2-7.5-16.7-16.8-16.7zM107.7 68c11.8 0 21.3-9.5 21.3-21.3s-9.6-21.3-21.3-21.3c-11.8 0-21.3 9.5-21.3 21.3-.1 11.8 9.5 21.3 21.3 21.3zM17.8 40.7C8.5 40.7 1 48.2 1 57.4s7.5 16.7 16.8 16.7 16.8-7.5 16.8-16.7-7.5-16.7-16.8-16.7zm89.9 33.5c-11.8 0-21.3 9.5-21.3 21.3v9.1H129v-9.1c0-11.8-9.6-21.3-21.3-21.3zm-47.2 3.1c-11 0-19.8 8.9-19.8 19.8v7.5h39.7v-7.5c-.1-10.9-9-19.8-19.9-19.8zm0-45.7c-11 0-19.8 8.9-19.8 19.8s8.9 19.8 19.8 19.8c11 0 19.8-8.9 19.8-19.8s-8.9-19.8-19.8-19.8z"/></svg>