<svg version="1.1" xmlns="http://www.w3.org/2000/svg" x="0px" y="0px" viewBox="0 0 130 130" style="enable-background:new 0 0 130 130;" xml:space="preserve">
<rect fill="none" width="130" height="130"/>
<g>
	<path d="M65,1.9c-35.3,0-64,28.7-64,64c0,30.1,20.7,55.3,48.7,62.1c0-7.9,0-23,0-23.5c-0.1-0.1-12.1,7-18.3-5.3
		c-0.7-1.5-2.2-6.6-6-9.4c-0.1-0.1-2.9-1.5-3.1-2.9c0-0.2,0.2-0.6,0.4-0.7c0.3-0.1,4.8-2,9.9,4.4c1.5,2.1,5,10.4,17,5.3
		c0.3-1.3,0.6-3.3,3.2-5.7c-17.9-2.1-24.5-8.3-27-23.6c-1.6-10.4,1.5-19.1,6-23.4c-0.7-0.9-3-8.5,0.6-16.6c3.8-0.8,10.9,2,17.1,6.5
		c8.8-3.2,25.2-2.3,31.1,0c2.8-2.3,12.8-7.7,17.1-6.5c1.3,3.2,3.1,11,0.6,16.6c5.6,5.7,7.1,13.1,6.1,22.2
		c-1.2,13.8-8.2,23.1-27.2,24.7c3.2,2.2,6.1,5.3,6.1,10.5c0,5.6,0,18.9,0,26.6C109.7,119.5,129,95,129,65.9
		C129,30.6,100.3,1.9,65,1.9z"/>
</g>
</svg>
