<svg xmlns="http://www.w3.org/2000/svg" viewBox="0 0 130 130"><path fill="none" d="M0 0h130v130H0z"/><path d="M64.875 58.832c15.978 0 28.92-12.93 28.92-28.918C93.795 13.947 80.853 1 64.875 1 48.901 1 35.964 13.947 35.964 29.913c0 15.988 12.937 28.919 28.911 28.919zm43.144 62.722l-.302-1.565c-2.329-10.061-9.385-33.872-13.972-39.67-6.19-11.346-23.854-10.804-23.854-10.804H55.874s-13.048-.465-20.519 10.278c-3.992 5.737-10.193 27.85-12.791 38.961-.456 1.732-.605 2.772-.605 2.772-1.052 4.115 1.562 7.474 5.806 7.474h74.536c4.243 0 6.821-3.353 5.718-7.446z"/></svg>