<svg version="1.1" xmlns="http://www.w3.org/2000/svg" x="0px" y="0px" viewBox="0 0 130 130" style="enable-background:new 0 0 130 130;" xml:space="preserve">
<rect fill="none" width="130" height="130"/>
<g>
	<polygon points="127.2,46.5 90.9,46.5 67.1,114.8 	"/>
	<polygon points="91.8,45.5 128,45.5 128.4,45.1 112.5,22.1 	"/>
	<polygon points="111.6,21.6 67.5,12.1 90.9,44.9 	"/>
	<polygon points="64.7,118.3 64.9,118 89.9,46.5 39.3,46.5 	"/>
	<polygon points="38.3,46.5 2.3,46.5 63,116.4 	"/>
	<path d="M16.9,22.5C16.9,22.5,16.9,22.5,16.9,22.5c-0.1-0.1-0.2-0.2-0.3-0.3c0,0,0,0-0.1-0.1c0,0-0.1-0.1-0.1-0.1
		l-0.3,0.6L16,22.2c-2,2.7-9.4,15.1-14.2,23.3h35.9c-0.3-0.4-0.7-0.8-1.1-1.2C29.4,36.1,19.9,25.4,16.9,22.5z"/>
	<polygon points="39.4,45.5 90,45.5 66,11.6 64.5,11.3 63.6,11.5 	"/>
	<path d="M17.3,21.5c0.5,0.5,1.2,1.2,2,2c2.8,2.9,8.1,8.8,18.5,20.6c0.2,0.3,0.5,0.5,0.7,0.8l23.4-32.9L17.3,21.5z"/>
</g>
</svg>
