<svg version="1.1" xmlns="http://www.w3.org/2000/svg" x="0px" y="0px" viewBox="0 0 130 130" enable-background="new 0 0 130 130" xml:space="preserve">
<rect fill="none" width="130" height="130"/>
<g>
	<path  fill="#ffffff" d="M127.514,35.951h-3.541c-0.824,0-1.685-0.645-1.913-1.429l-2.033-4.943
		c-0.396-0.713-0.251-1.773,0.34-2.352l2.491-2.495c0.586-0.577,0.586-1.523,0-2.101l-2.871-2.876c-0.577-0.569-1.525-0.569-2.099,0
		l-2.505,2.505c-0.577,0.575-1.636,0.728-2.354,0.334l-4.952-2.036c-0.78-0.231-1.42-1.093-1.42-1.909v-3.534
		c0-0.82-0.675-1.489-1.495-1.489h-4.057c-0.82,0-1.486,0.669-1.486,1.489v3.534c0,0.816-0.652,1.678-1.429,1.909l-4.952,2.036
		c-0.719,0.394-1.777,0.241-2.351-0.334l-2.504-2.5c-0.578-0.574-1.521-0.574-2.1,0l-2.879,2.871c-0.583,0.577-0.583,1.523,0,2.101
		l2.5,2.495c0.586,0.578,0.731,1.639,0.335,2.352l-2.028,4.943c-0.233,0.784-1.103,1.429-1.914,1.429h-3.541
		c-0.815,0-1.49,0.671-1.49,1.485v4.06c0,0.813,0.675,1.484,1.49,1.484h3.541c0.812,0,1.681,0.643,1.914,1.425l2.028,4.942
		c0.396,0.718,0.251,1.772-0.335,2.354l-2.5,2.495c-0.583,0.577-0.583,1.526,0,2.101l2.875,2.875
		c0.582,0.571,1.525,0.571,2.104-0.004l2.504-2.499c0.573-0.577,1.632-0.726,2.351-0.332l4.952,2.033
		c0.776,0.229,1.429,1.093,1.429,1.909v3.534c0,0.815,0.666,1.488,1.486,1.488h4.057c0.82,0,1.495-0.673,1.495-1.488v-3.534
		c0-0.816,0.64-1.681,1.42-1.909l4.952-2.033c0.719-0.394,1.777-0.245,2.354,0.332l2.505,2.503c0.573,0.578,1.521,0.578,2.099,0
		l2.871-2.875c0.586-0.574,0.586-1.523,0-2.101l-2.505-2.495c-0.577-0.581-0.723-1.641-0.326-2.354l2.033-4.942
		c0.229-0.782,1.089-1.425,1.913-1.425h3.541c0.825,0,1.486-0.671,1.486-1.484v-4.06C129,36.622,128.339,35.951,127.514,35.951z
		 M103.138,45.923c-3.572,0-6.47-2.889-6.47-6.46c0-3.565,2.897-6.458,6.47-6.458c3.571,0,6.464,2.893,6.464,6.458
		C109.602,43.034,106.709,45.923,103.138,45.923z"/>
	<path  fill="#ffffff" d="M79.818,70.328h-5.543c-1.292,0-2.641-1.01-3.007-2.239l-3.188-7.757c-0.617-1.118-0.384-2.78,0.524-3.688
		l3.912-3.916c0.912-0.907,0.912-2.387,0-3.295l-4.498-4.515c-0.913-0.894-2.395-0.894-3.299,0l-3.925,3.932
		c-0.908,0.902-2.57,1.143-3.704,0.522l-7.765-3.194c-1.222-0.361-2.228-1.713-2.228-2.997v-5.544c0-1.283-1.058-2.333-2.337-2.333
		h-6.381c-1.278,0-2.319,1.05-2.319,2.333v5.544c0,1.284-1.023,2.636-2.244,2.997l-7.766,3.194c-1.12,0.62-2.787,0.38-3.691-0.522
		l-3.92-3.923c-0.913-0.902-2.399-0.902-3.303,0l-4.512,4.506c-0.912,0.908-0.912,2.388,0,3.295l3.916,3.916
		c0.913,0.907,1.151,2.569,0.534,3.688l-3.188,7.757c-0.37,1.229-1.725,2.239-2.999,2.239H3.324C2.05,70.328,1,71.38,1,72.661v6.363
		c0,1.278,1.05,2.333,2.324,2.333h5.564c1.274,0,2.629,1.005,2.999,2.235l3.188,7.752c0.617,1.125,0.379,2.783-0.525,3.691
		l-3.925,3.916c-0.912,0.903-0.912,2.395,0,3.298l4.507,4.509c0.908,0.896,2.395,0.896,3.308-0.009l3.92-3.92
		c0.904-0.906,2.571-1.138,3.691-0.521l7.766,3.188c1.221,0.359,2.244,1.713,2.244,3.001v5.54c0,1.284,1.041,2.335,2.319,2.335
		h6.381c1.279,0,2.337-1.051,2.337-2.335v-5.54c0-1.288,1.006-2.642,2.228-3.001l7.765-3.188c1.134-0.617,2.796-0.386,3.704,0.521
		l3.925,3.929c0.904,0.902,2.386,0.902,3.299,0l4.498-4.509c0.912-0.903,0.912-2.395,0-3.298l-3.93-3.916
		c-0.891-0.908-1.124-2.571-0.507-3.691l3.188-7.752c0.366-1.23,1.715-2.235,3.007-2.235h5.543c1.288,0,2.342-1.055,2.342-2.333
		v-6.363C82.16,71.38,81.106,70.328,79.818,70.328z M41.578,85.974c-5.604,0-10.143-4.537-10.143-10.133
		c0-5.599,4.538-10.134,10.143-10.134c5.601,0,10.146,4.535,10.146,10.134C51.725,81.437,47.179,85.974,41.578,85.974z"/>
</g>
</svg>
