<svg xmlns="http://www.w3.org/2000/svg"><symbol id="icon-diamond" viewBox="0 0 130 130">
<rect fill="none" width="130" height="130"/>
<g>
	<polygon points="127.2,46.5 90.9,46.5 67.1,114.8 	"/>
	<polygon points="91.8,45.5 128,45.5 128.4,45.1 112.5,22.1 	"/>
	<polygon points="111.6,21.6 67.5,12.1 90.9,44.9 	"/>
	<polygon points="64.7,118.3 64.9,118 89.9,46.5 39.3,46.5 	"/>
	<polygon points="38.3,46.5 2.3,46.5 63,116.4 	"/>
	<path d="M16.9,22.5C16.9,22.5,16.9,22.5,16.9,22.5c-0.1-0.1-0.2-0.2-0.3-0.3c0,0,0,0-0.1-0.1c0,0-0.1-0.1-0.1-0.1
		l-0.3,0.6L16,22.2c-2,2.7-9.4,15.1-14.2,23.3h35.9c-0.3-0.4-0.7-0.8-1.1-1.2C29.4,36.1,19.9,25.4,16.9,22.5z"/>
	<polygon points="39.4,45.5 90,45.5 66,11.6 64.5,11.3 63.6,11.5 	"/>
	<path d="M17.3,21.5c0.5,0.5,1.2,1.2,2,2c2.8,2.9,8.1,8.8,18.5,20.6c0.2,0.3,0.5,0.5,0.7,0.8l23.4-32.9L17.3,21.5z"/>
</g>
</symbol><symbol id="icon-facebook" viewBox="0 0 130 130">
<rect fill="none" width="130" height="130"/>
<g>
	<path d="M79.8,25.4h19.7V1H79.8C63.5,1,50.2,15.4,50.2,33v12.3H30.5v24.5h19.7V129h24.6V69.8h24.6V45.3H74.8V32.8
		C74.8,28.5,77.5,25.4,79.8,25.4z"/>
</g>
</symbol><symbol id="icon-gallery" viewBox="0 0 130 130">
<rect fill="none" width="130" height="130"/>
<g>
	<rect x="1" y="1.13" width="36.972" height="36.969"/>
	<rect x="1" y="46.489" width="36.972" height="36.97"/>
	<rect x="46.436" y="1.13" width="36.965" height="36.969"/>
	<rect x="46.436" y="46.489" width="36.965" height="36.97"/>
	<rect x="92.028" y="1.13" width="36.972" height="36.969"/>
	<rect x="92.028" y="46.489" width="36.972" height="36.97"/>
	<rect x="1" y="91.901" width="36.972" height="36.969"/>
	<rect x="46.436" y="91.901" width="36.965" height="36.969"/>
	<rect x="92.028" y="91.901" width="36.972" height="36.969"/>
</g>
</symbol><symbol id="icon-git" viewBox="0 0 130 130">
<rect fill="none" width="130" height="130"/>
<g>
	<path d="M65,1.9c-35.3,0-64,28.7-64,64c0,30.1,20.7,55.3,48.7,62.1c0-7.9,0-23,0-23.5c-0.1-0.1-12.1,7-18.3-5.3
		c-0.7-1.5-2.2-6.6-6-9.4c-0.1-0.1-2.9-1.5-3.1-2.9c0-0.2,0.2-0.6,0.4-0.7c0.3-0.1,4.8-2,9.9,4.4c1.5,2.1,5,10.4,17,5.3
		c0.3-1.3,0.6-3.3,3.2-5.7c-17.9-2.1-24.5-8.3-27-23.6c-1.6-10.4,1.5-19.1,6-23.4c-0.7-0.9-3-8.5,0.6-16.6c3.8-0.8,10.9,2,17.1,6.5
		c8.8-3.2,25.2-2.3,31.1,0c2.8-2.3,12.8-7.7,17.1-6.5c1.3,3.2,3.1,11,0.6,16.6c5.6,5.7,7.1,13.1,6.1,22.2
		c-1.2,13.8-8.2,23.1-27.2,24.7c3.2,2.2,6.1,5.3,6.1,10.5c0,5.6,0,18.9,0,26.6C109.7,119.5,129,95,129,65.9
		C129,30.6,100.3,1.9,65,1.9z"/>
</g>
</symbol><symbol id="icon-google" viewBox="0 0 130 130">
<rect fill="none" width="130" height="130"/>
<g>
	<path d="M74.9,10H44.5c-4,0-8.4,0.4-13,1.3c-4.7,1-9.1,3.2-13.5,6.6c-6.3,5.8-9.4,12.2-9.4,19.3c0,5.9,2.2,11,6.7,15.4
		c4.2,4.7,10.4,7.2,18.5,7.2c1.5,0,3.2-0.1,4.9-0.3c-0.3,0.8-0.6,1.6-0.9,2.5c-0.4,0.9-0.6,1.9-0.6,3.2c0,2.2,0.5,4,1.5,5.5
		c0.9,1.6,1.8,3.1,2.9,4.4c-3.6,0.1-8,0.5-13.4,1.3c-5.4,0.9-10.6,2.7-15.6,5.3c-4.4,2.5-7.4,5.4-9.1,8.6C1.9,93.8,1,96.8,1,99.4
		c0,5.5,2.7,10.2,8,14.1c5.3,4.2,13.2,6.4,23.9,6.4c12.7-0.2,22.5-3.1,29.2-8.7c6.5-5.4,9.8-11.6,9.8-18.6c-0.1-4.9-1.3-8.9-3.5-12
		c-2.4-3-5.2-5.7-8.4-8.2l-5.1-4C54,67.8,53.2,67,52.4,66c-0.9-1-1.4-2.2-1.4-3.7c0-1.5,0.4-2.9,1.3-4.1c0.8-1.1,1.6-2.1,2.5-3
		c1.6-1.3,3.1-2.6,4.5-3.9c1.3-1.3,2.5-2.7,3.6-4.2c2.3-3.1,3.5-7.2,3.6-12.4c0-2.8-0.3-5.3-1-7.4c-0.8-2.1-1.7-3.9-2.8-5.5
		c-1.1-1.6-2.2-3-3.4-4.1c-1.2-1.1-2.3-1.9-3.2-2.5h9.3L74.9,10z M58.2,88.8c2.5,2.7,3.8,5.9,3.8,9.6c0,4.5-1.8,8.2-5.5,11.1
		c-3.8,2.9-9.2,4.4-16.4,4.5c-8-0.1-14.3-1.8-18.9-5.1c-4.8-3.3-7.3-7.5-7.3-12.5c0-2.6,0.6-4.8,1.7-6.6c1-1.7,2.2-3.2,3.6-4.4
		c1.5-1.1,2.9-2,4.3-2.6c1.4-0.6,2.5-1,3.3-1.3c3.3-0.9,6.5-1.6,9.7-2c3.2-0.3,5.2-0.4,5.9-0.3c1.3,0,2.4,0.1,3.4,0.1
		C51.3,83.1,55.5,86.3,58.2,88.8z M53.3,46.3c-0.4,1.9-1.2,3.8-2.4,5.7c-2.7,2.6-6,4-10,4.1c-3.2,0-6-0.9-8.5-2.8
		c-2.5-1.8-4.5-4.1-6.1-6.7c-3.2-5.7-4.8-11.1-4.8-16.3c-0.1-4,1-7.5,3.3-10.7c2.7-3.1,6.2-4.6,10.3-4.7c3.1,0.1,5.9,1,8.3,2.6
		c2.3,1.7,4.2,4,5.7,6.8c3.1,5.8,4.6,11.5,4.6,17.2C53.6,42.8,53.5,44.4,53.3,46.3z M109,31.9V11.4h-6.3v20.4H82.6v6.5h20.2v20.8
		h6.3V38.3h20v-6.5L109,31.9L109,31.9z"/>
</g>
</symbol><symbol id="icon-mail" viewBox="0 0 130 130">
<rect fill="none" width="130" height="130"/>
<g>
	<path d="M128.948,24.976c-0.023-0.141-0.052-0.267-0.099-0.398c-0.035-0.099-0.092-0.188-0.15-0.277
		c-6.753,8.805-18.374,22.845-33.728,34.301c15.803,15.413,27.833,34,34.028,44.542V25.198
		C129,25.115,128.953,25.049,128.948,24.976z"/>
	<path d="M64.993,71.024c28.03-9.026,52.381-34.643,62.986-47.433c-0.028-0.024-0.054-0.05-0.089-0.069
		c-0.043-0.021-0.09-0.021-0.132-0.044c-0.142-0.059-0.287-0.094-0.442-0.132c-0.146-0.033-0.282-0.063-0.433-0.074
		c-0.052-0.007-0.099-0.025-0.15-0.025H3.262c-0.057,0-0.104,0.019-0.155,0.025c-0.141,0.011-0.277,0.042-0.414,0.072
		c-0.159,0.04-0.306,0.075-0.456,0.134c-0.037,0.023-0.084,0.023-0.131,0.044c-0.036,0.019-0.063,0.047-0.095,0.073
		C12.48,36.239,37.028,62.015,64.993,71.024z"/>
	<path d="M93.446,59.714c-8.292,5.995-17.622,11.185-27.825,14.38l-0.628,0.198l-0.628-0.198
		c-10.171-3.187-19.479-8.358-27.758-14.333C19.793,76.026,7.261,95.92,1.478,105.945c0.413,0.478,1.039,0.809,1.784,0.809h123.472
		c0.729,0,1.345-0.314,1.759-0.771C122.729,95.944,110.212,75.997,93.446,59.714z"/>
	<path d="M35.089,58.646C19.703,47.185,8.062,33.123,1.301,24.305c-0.059,0.088-0.115,0.176-0.155,0.272
		c-0.047,0.132-0.07,0.258-0.094,0.398C1.047,25.049,1,25.115,1,25.198v77.865C7.219,92.529,19.257,74.024,35.089,58.646z"/>
</g>
</symbol><symbol id="icon-myspace" viewBox="0 0 130 130">
<rect fill="none" width="130" height="130"/>
<g>
	<path fill="#ffffff" d="M17.8,80.3C8.5,80.3,1,87.8,1,97c0,2.2,0,4.8,0,7.6h33.6c0-3.4,0-6.3,0-7.6C34.6,87.8,27.1,80.3,17.8,80.3z
		 M107.7,68c11.8,0,21.3-9.5,21.3-21.3c0-11.8-9.6-21.3-21.3-21.3c-11.8,0-21.3,9.5-21.3,21.3C86.3,58.5,95.9,68,107.7,68z
		 M17.8,40.7C8.5,40.7,1,48.2,1,57.4c0,9.2,7.5,16.7,16.8,16.7c9.3,0,16.8-7.5,16.8-16.7C34.6,48.2,27.1,40.7,17.8,40.7z
		 M107.7,74.2c-11.8,0-21.3,9.5-21.3,21.3c0,1.5,0,5.1,0,9.1H129c0-3.1,0-6.2,0-9.1C129,83.7,119.4,74.2,107.7,74.2z M60.5,77.3
		c-11,0-19.8,8.9-19.8,19.8c0,2.4,0,5,0,7.5h39.7c0-3.3,0-6.1,0-7.5C80.3,86.2,71.4,77.3,60.5,77.3z M60.5,31.6
		c-11,0-19.8,8.9-19.8,19.8c0,10.9,8.9,19.8,19.8,19.8c11,0,19.8-8.9,19.8-19.8C80.3,40.5,71.4,31.6,60.5,31.6z"/>
</g>
</symbol><symbol id="icon-pen" viewBox="0 0 130 130">
<rect fill="none" width="130" height="130"/>
<g>
	<g>
		<path d="M67.5,2l-0.3,52.6c2.6,0.8,3.7,2.4,3.7,5.3c0,3.4-2.8,6.2-6.2,6.2c-3.5,0-6.2-2.8-6.2-6.2
			c0-2.8,1.9-5.2,4.5-6V1l-45,75.3l25.2,26.5v10.9h43.8v-10.9l24.4-26.5L67.5,2z"/>
	</g>
	<g>
		<polygon points="112.4,115.9 17.6,115.9 14.6,129 115.4,129"/>
	</g>
</g>
</symbol><symbol id="icon-person" viewBox="0 0 130 130">
<rect fill="none" width="130" height="130"/>
<g>
	<path d="M64.875,58.832c15.978,0,28.92-12.93,28.92-28.918C93.795,13.947,80.853,1,64.875,1
			C48.901,1,35.964,13.947,35.964,29.913C35.964,45.901,48.901,58.832,64.875,58.832z M108.019,121.554l-0.302-1.565
			c-2.329-10.061-9.385-33.872-13.972-39.67c-6.19-11.346-23.854-10.804-23.854-10.804H55.874c0,0-13.048-0.465-20.519,10.278
			c-3.992,5.737-10.193,27.85-12.791,38.961c-0.456,1.732-0.605,2.772-0.605,2.772c-1.052,4.115,1.562,7.474,5.806,7.474h74.536
			C106.544,129,109.122,125.647,108.019,121.554z"/>
</g>
</symbol><symbol id="icon-setup" viewBox="0 0 130 130">
<rect fill="none" width="130" height="130"/>
<g>
	<path fill="#ffffff" d="M127.514,35.951h-3.541c-0.824,0-1.685-0.645-1.913-1.429l-2.033-4.943
		c-0.396-0.713-0.251-1.773,0.34-2.352l2.491-2.495c0.586-0.577,0.586-1.523,0-2.101l-2.871-2.876c-0.577-0.569-1.525-0.569-2.099,0
		l-2.505,2.505c-0.577,0.575-1.636,0.728-2.354,0.334l-4.952-2.036c-0.78-0.231-1.42-1.093-1.42-1.909v-3.534
		c0-0.82-0.675-1.489-1.495-1.489h-4.057c-0.82,0-1.486,0.669-1.486,1.489v3.534c0,0.816-0.652,1.678-1.429,1.909l-4.952,2.036
		c-0.719,0.394-1.777,0.241-2.351-0.334l-2.504-2.5c-0.578-0.574-1.521-0.574-2.1,0l-2.879,2.871c-0.583,0.577-0.583,1.523,0,2.101
		l2.5,2.495c0.586,0.578,0.731,1.639,0.335,2.352l-2.028,4.943c-0.233,0.784-1.103,1.429-1.914,1.429h-3.541
		c-0.815,0-1.49,0.671-1.49,1.485v4.06c0,0.813,0.675,1.484,1.49,1.484h3.541c0.812,0,1.681,0.643,1.914,1.425l2.028,4.942
		c0.396,0.718,0.251,1.772-0.335,2.354l-2.5,2.495c-0.583,0.577-0.583,1.526,0,2.101l2.875,2.875
		c0.582,0.571,1.525,0.571,2.104-0.004l2.504-2.499c0.573-0.577,1.632-0.726,2.351-0.332l4.952,2.033
		c0.776,0.229,1.429,1.093,1.429,1.909v3.534c0,0.815,0.666,1.488,1.486,1.488h4.057c0.82,0,1.495-0.673,1.495-1.488v-3.534
		c0-0.816,0.64-1.681,1.42-1.909l4.952-2.033c0.719-0.394,1.777-0.245,2.354,0.332l2.505,2.503c0.573,0.578,1.521,0.578,2.099,0
		l2.871-2.875c0.586-0.574,0.586-1.523,0-2.101l-2.505-2.495c-0.577-0.581-0.723-1.641-0.326-2.354l2.033-4.942
		c0.229-0.782,1.089-1.425,1.913-1.425h3.541c0.825,0,1.486-0.671,1.486-1.484v-4.06C129,36.622,128.339,35.951,127.514,35.951z
		 M103.138,45.923c-3.572,0-6.47-2.889-6.47-6.46c0-3.565,2.897-6.458,6.47-6.458c3.571,0,6.464,2.893,6.464,6.458
		C109.602,43.034,106.709,45.923,103.138,45.923z"/>
	<path fill="#ffffff" d="M79.818,70.328h-5.543c-1.292,0-2.641-1.01-3.007-2.239l-3.188-7.757c-0.617-1.118-0.384-2.78,0.524-3.688
		l3.912-3.916c0.912-0.907,0.912-2.387,0-3.295l-4.498-4.515c-0.913-0.894-2.395-0.894-3.299,0l-3.925,3.932
		c-0.908,0.902-2.57,1.143-3.704,0.522l-7.765-3.194c-1.222-0.361-2.228-1.713-2.228-2.997v-5.544c0-1.283-1.058-2.333-2.337-2.333
		h-6.381c-1.278,0-2.319,1.05-2.319,2.333v5.544c0,1.284-1.023,2.636-2.244,2.997l-7.766,3.194c-1.12,0.62-2.787,0.38-3.691-0.522
		l-3.92-3.923c-0.913-0.902-2.399-0.902-3.303,0l-4.512,4.506c-0.912,0.908-0.912,2.388,0,3.295l3.916,3.916
		c0.913,0.907,1.151,2.569,0.534,3.688l-3.188,7.757c-0.37,1.229-1.725,2.239-2.999,2.239H3.324C2.05,70.328,1,71.38,1,72.661v6.363
		c0,1.278,1.05,2.333,2.324,2.333h5.564c1.274,0,2.629,1.005,2.999,2.235l3.188,7.752c0.617,1.125,0.379,2.783-0.525,3.691
		l-3.925,3.916c-0.912,0.903-0.912,2.395,0,3.298l4.507,4.509c0.908,0.896,2.395,0.896,3.308-0.009l3.92-3.92
		c0.904-0.906,2.571-1.138,3.691-0.521l7.766,3.188c1.221,0.359,2.244,1.713,2.244,3.001v5.54c0,1.284,1.041,2.335,2.319,2.335
		h6.381c1.279,0,2.337-1.051,2.337-2.335v-5.54c0-1.288,1.006-2.642,2.228-3.001l7.765-3.188c1.134-0.617,2.796-0.386,3.704,0.521
		l3.925,3.929c0.904,0.902,2.386,0.902,3.299,0l4.498-4.509c0.912-0.903,0.912-2.395,0-3.298l-3.93-3.916
		c-0.891-0.908-1.124-2.571-0.507-3.691l3.188-7.752c0.366-1.23,1.715-2.235,3.007-2.235h5.543c1.288,0,2.342-1.055,2.342-2.333
		v-6.363C82.16,71.38,81.106,70.328,79.818,70.328z M41.578,85.974c-5.604,0-10.143-4.537-10.143-10.133
		c0-5.599,4.538-10.134,10.143-10.134c5.601,0,10.146,4.535,10.146,10.134C51.725,81.437,47.179,85.974,41.578,85.974z"/>
</g>
</symbol><symbol id="icon-smartphone" viewBox="0 0 130 130">
<rect fill="none" width="130" height="130"/>
<path fill="#ffffff" d="M127.8,71.9c-1.3-1.4-3.5-2.6-3.5-2.6L44.6,23.7c0,0-4.6-2.2-9.6,0.1c0,0-4.9,2.9-5.8,3.4
	C28.3,27.7,3.9,42.3,3,42.8c-1.2,0.7-2.1,1.9-2,2.9c0,1.1,0.1,3,0.1,3l0.1,2c0,0,0,1.8,1.4,2.9c1.5,1.1,78,50.6,78,50.6s4.2,3,8.7,3
	s7.7-2.5,9.1-3.5c1.5-1,27.8-19.7,27.8-19.7s2.7-1.9,2.7-3.7v-5.7C129,74.6,129.1,73.2,127.8,71.9z M23.1,36.5
	c1-0.5,2.3-0.7,3.2-0.3c0.9,0.4,0.7,1.1-0.2,1.6c-0.9,0.5-2.3,0.7-3.2,0.3C22,37.7,22.2,37,23.1,36.5z M79.8,93.4
	c-0.4,0.3-1,0.3-1.4,0l-66.2-42c-0.4-0.2-0.4-0.6,0-0.9l36-21.2c0.4-0.2,1-0.2,1.4,0l66.2,38c0.4,0.2,0.4,0.6,0,0.9L79.8,93.4z
	 M96.9,100.6c0-0.3,0.2-0.5,0.4-0.6c0.2-0.1,0.4,0.1,0.4,0.3c0,0.3-0.2,0.5-0.4,0.6C97.1,101,96.9,100.9,96.9,100.6z M97.5,102.4
	c-0.2,0.1-0.4-0.1-0.4-0.3s0.2-0.5,0.4-0.6s0.4,0.1,0.4,0.3C97.9,102,97.7,102.3,97.5,102.4z M98.3,99.7c0-0.2,0.2-0.5,0.4-0.6
	c0.2-0.1,0.4,0.1,0.4,0.3c0,0.3-0.2,0.5-0.4,0.6C98.5,100.1,98.3,99.9,98.3,99.7z M98.8,101.4c-0.2,0.1-0.4-0.1-0.4-0.3
	c0-0.3,0.2-0.5,0.4-0.6c0.2-0.1,0.4,0.1,0.4,0.3C99.2,101,99.1,101.3,98.8,101.4z M99.6,98.7c0-0.3,0.2-0.5,0.4-0.6
	c0.2-0.1,0.4,0.1,0.4,0.3c0,0.3-0.2,0.5-0.4,0.6C99.8,99.1,99.6,99,99.6,98.7z M100.1,100.4c-0.2,0.1-0.4-0.1-0.4-0.3
	c0-0.3,0.2-0.5,0.4-0.6s0.4,0.1,0.4,0.3C100.5,100.1,100.4,100.3,100.1,100.4z M100.9,97.9c0-0.3,0.2-0.5,0.4-0.6
	c0.2-0.1,0.4,0.1,0.4,0.3c0,0.3-0.2,0.5-0.4,0.6C101.1,98.2,100.9,98.1,100.9,97.9z M101.4,99.5c-0.2,0.1-0.4-0.1-0.4-0.3
	c0-0.3,0.2-0.5,0.4-0.6c0.2-0.1,0.4,0.1,0.4,0.3C101.8,99.2,101.6,99.4,101.4,99.5z M102.2,96.9c0-0.3,0.2-0.5,0.4-0.6
	c0.2-0.1,0.4,0.1,0.4,0.3c0,0.3-0.2,0.5-0.4,0.6C102.4,97.3,102.2,97.1,102.2,96.9z M102.7,98.6c-0.2,0.1-0.4-0.1-0.4-0.3
	s0.2-0.5,0.4-0.6c0.2-0.1,0.4,0.1,0.4,0.3C103.1,98.2,102.9,98.5,102.7,98.6z M103.4,95.9c0-0.3,0.2-0.5,0.4-0.6
	c0.2-0.1,0.4,0.1,0.4,0.3c0,0.3-0.2,0.5-0.4,0.6C103.6,96.3,103.4,96.2,103.4,95.9z M103.9,97.6c-0.2,0.1-0.4-0.1-0.4-0.3
	c0-0.3,0.2-0.5,0.4-0.6c0.2-0.1,0.4,0.1,0.4,0.3C104.4,97.3,104.2,97.5,103.9,97.6z M104.7,95c0-0.3,0.2-0.5,0.4-0.6
	c0.2-0.1,0.4,0.1,0.4,0.3c0,0.3-0.2,0.5-0.4,0.6C104.9,95.4,104.7,95.2,104.7,95z M105.2,96.7c-0.2,0.1-0.4-0.1-0.4-0.3
	c0-0.3,0.2-0.5,0.4-0.6c0.2-0.1,0.4,0.1,0.4,0.3S105.5,96.6,105.2,96.7z M105.9,87c-0.1,0-0.2,0-0.3,0.1c-0.1,0-0.2,0-0.2,0
	c-0.1,0-0.1,0-0.2,0c-0.1,0-0.2,0-0.3,0c-0.1,0-0.1,0-0.2,0v0c-0.1,0-0.2,0-0.3,0c-0.1,0-0.2,0-0.2,0c-0.1,0-0.2,0-0.3,0
	c-0.2,0-0.3,0-0.5-0.1c-0.3-0.1-0.5-0.1-0.8-0.2c-0.2-0.1-0.5-0.2-0.7-0.3c-0.2-0.1-0.4-0.2-0.6-0.3c-0.2-0.1-0.4-0.3-0.5-0.4
	c-0.1-0.1-0.2-0.2-0.3-0.3c-0.1-0.2-0.3-0.4-0.4-0.6c-0.1-0.2-0.2-0.5-0.2-0.8c0-0.1,0-0.3,0-0.4c0-0.2,0.1-0.3,0.2-0.5
	c0-0.1,0.1-0.2,0.2-0.3c0.1-0.1,0.1-0.2,0.2-0.3c0.1-0.1,0.3-0.3,0.4-0.4c0.2-0.1,0.4-0.3,0.6-0.4c0.1,0,0.2-0.1,0.2-0.1
	c0.2-0.1,0.3-0.1,0.5-0.2c0.2-0.1,0.4-0.1,0.6-0.2c0.2,0,0.4-0.1,0.6-0.1c0.1,0,0.3,0,0.4,0c0.1,0,0.3,0,0.4,0c0.1,0,0.2,0,0.3,0
	c0.1,0,0.2,0,0.3,0c0.1,0,0.1,0,0.2,0c0.1,0,0.2,0,0.3,0.1c0.2,0,0.4,0.1,0.6,0.1c0.1,0,0.2,0.1,0.3,0.1c0.2,0.1,0.5,0.2,0.7,0.3
	c0.3,0.1,0.6,0.3,0.8,0.5c0.1,0.1,0.2,0.1,0.3,0.2c0.1,0.1,0.2,0.2,0.2,0.2c0.1,0.1,0.2,0.2,0.2,0.3c0.1,0.2,0.3,0.4,0.3,0.7
	c0,0.1,0.1,0.3,0.1,0.4c0,0.1,0,0.2,0,0.3c0,0.2-0.1,0.3-0.1,0.4c-0.1,0.3-0.3,0.6-0.5,0.8c-0.1,0.1-0.2,0.2-0.2,0.2
	c-0.1,0.1-0.3,0.2-0.4,0.3c-0.1,0.1-0.2,0.1-0.3,0.2c-0.2,0.1-0.3,0.2-0.5,0.2c-0.2,0.1-0.3,0.1-0.5,0.2
	C106.3,86.9,106.1,87,105.9,87z M116.1,89.4c0,0-5.7,4.3-7.2,5.4c-1.5,1.1-1.8-0.1-1.8-0.1c-0.5-1.5,1-2.3,1-2.3s6.4-4.7,7.5-5.5
	c1-0.7,1.3,0.4,1.3,0.4C117.1,88.9,116.1,89.4,116.1,89.4z M118.3,85.7c0-0.3,0.2-0.5,0.4-0.6c0.2-0.1,0.4,0.1,0.4,0.3
	c0,0.3-0.2,0.5-0.4,0.6C118.5,86.1,118.3,86,118.3,85.7z M118.9,87.4c-0.2,0.1-0.4-0.1-0.4-0.3s0.2-0.5,0.4-0.6
	c0.2-0.1,0.4,0.1,0.4,0.3C119.3,87.1,119.1,87.3,118.9,87.4z M119.5,84.8c0-0.3,0.2-0.5,0.4-0.6c0.2-0.1,0.4,0.1,0.4,0.3
	c0,0.3-0.2,0.5-0.4,0.6C119.7,85.2,119.5,85,119.5,84.8z M120,86.4c-0.2,0.1-0.4-0.1-0.4-0.3c0-0.3,0.2-0.5,0.4-0.6
	c0.2-0.1,0.4,0.1,0.4,0.3C120.4,86.1,120.2,86.4,120,86.4z M120.6,83.9c0-0.3,0.2-0.5,0.4-0.6c0.2-0.1,0.4,0.1,0.4,0.3
	c0,0.3-0.2,0.5-0.4,0.6C120.8,84.3,120.6,84.1,120.6,83.9z M121.2,85.6c-0.2,0.1-0.4-0.1-0.4-0.3s0.2-0.5,0.4-0.6
	c0.2-0.1,0.4,0.1,0.4,0.3C121.6,85.2,121.4,85.5,121.2,85.6z M121.7,83.1c0-0.3,0.2-0.5,0.4-0.6c0.2-0.1,0.4,0.1,0.4,0.3
	c0,0.3-0.2,0.5-0.4,0.6C121.9,83.5,121.7,83.3,121.7,83.1z M122.3,84.8c-0.2,0.1-0.4-0.1-0.4-0.3c0-0.3,0.2-0.5,0.4-0.6
	c0.2-0.1,0.4,0.1,0.4,0.3C122.7,84.4,122.5,84.7,122.3,84.8z M122.9,82.2c0-0.3,0.2-0.5,0.4-0.6c0.2-0.1,0.4,0.1,0.4,0.3
	s-0.2,0.5-0.4,0.6C123.1,82.6,122.9,82.4,122.9,82.2z M123.4,83.9c-0.2,0.1-0.4-0.1-0.4-0.3c0-0.3,0.2-0.5,0.4-0.6
	c0.2-0.1,0.4,0.1,0.4,0.3C123.8,83.5,123.6,83.8,123.4,83.9z"/>
</symbol><symbol id="icon-volume" viewBox="0 0 130 130">
<rect fill="none" width="130" height="130"/>
<g>
	<path fill="#ffffff" d="M56.8,15.5L31.8,38c-1.4,1.2-2.7,2.8-3.8,4.6H8.4C4.3,42.6,1,46,1,50v30c0,4.1,3.3,7.4,7.4,7.4H28
		c1.2,1.8,2.5,3.4,3.8,4.6l25,22.5c5,4.5,9.1,2.7,9.1-4.1V19.6C66,12.8,61.8,11,56.8,15.5z"/>
	<path fill="#ffffff" d="M81,41.5c-2,1.2-2.6,3.7-1.4,5.7c6.8,11.5,6.8,25.7,0,37.2c-1.2,2-0.5,4.5,1.4,5.7c0.7,0.4,1.4,0.6,2.1,0.6
		c1.4,0,2.8-0.7,3.5-2C95,74.5,95,57,86.6,42.9C85.4,40.9,82.9,40.3,81,41.5z M102.6,34.7c-1.2-2-3.7-2.6-5.7-1.4
		c-2,1.2-2.6,3.7-1.4,5.7c9.9,16.5,9.9,37.1,0,53.6c-1.2,2-0.5,4.5,1.4,5.7c0.7,0.4,1.4,0.6,2.1,0.6c1.4,0,2.8-0.7,3.5-2
		C114,77.6,114,53.8,102.6,34.7z M114.8,17.3c-1.2-1.9-3.8-2.5-5.7-1.2c-1.9,1.2-2.5,3.8-1.2,5.7c17.1,26.7,17.1,61.2,0,87.9
		c-1.2,1.9-0.7,4.5,1.2,5.7c0.7,0.4,1.5,0.7,2.2,0.7c1.4,0,2.7-0.7,3.5-1.9C133.7,84.7,133.7,46.7,114.8,17.3z"/>
</g>
</symbol></svg>